<?xml version="1.0" standalone="no"?>
<!DOCTYPE svg PUBLIC "-//W3C//DTD SVG 20010904//EN"
 "http://www.w3.org/TR/2001/REC-SVG-20010904/DTD/svg10.dtd">
<svg version="1.0" xmlns="http://www.w3.org/2000/svg"
 width="1024.000000pt" height="1024.000000pt" viewBox="0 0 1024.000000 1024.000000"
 preserveAspectRatio="xMidYMid meet">

<g transform="translate(0.000000,1024.000000) scale(0.100000,-0.100000)"
fill="#000000" stroke="none">
<path d="M3173 7325 c-209 -45 -373 -214 -418 -430 -12 -57 -15 -179 -15 -656
0 -654 1 -640 -68 -713 -48 -50 -101 -73 -185 -82 l-67 -7 0 -222 0 -222 60
-6 c33 -4 75 -13 94 -21 47 -19 113 -82 139 -130 22 -41 22 -48 27 -671 5
-572 7 -635 24 -685 64 -196 225 -345 413 -385 42 -9 128 -15 226 -15 l157 0
0 190 0 190 -118 0 c-106 0 -123 3 -169 25 -65 33 -101 84 -113 161 -6 33 -10
299 -10 599 0 593 0 598 -61 723 -35 71 -129 178 -183 207 -20 11 -36 22 -36
25 0 3 16 14 36 25 52 28 158 145 188 208 56 119 56 123 56 750 0 383 4 593
11 621 14 56 62 114 113 137 33 15 66 19 164 19 l122 0 0 190 0 190 -162 -1
c-96 0 -188 -6 -225 -14z"/>
<path d="M6660 7151 l0 -191 133 0 c177 -1 228 -24 274 -125 17 -37 18 -92 23
-670 l5 -630 26 -62 c48 -110 121 -198 207 -246 l44 -25 -56 -37 c-97 -64
-162 -154 -202 -279 l-25 -79 1 -548 c0 -302 -3 -574 -6 -605 -9 -71 -53 -139
-109 -168 -34 -18 -62 -22 -177 -24 l-138 -4 0 -189 0 -189 178 0 c126 0 195
4 237 15 205 52 362 202 421 400 16 54 18 127 23 690 l6 630 27 46 c44 75 146
129 245 129 l33 0 -2 227 -3 226 -57 3 c-104 6 -186 56 -224 138 l-24 51 0
575 c-1 640 -4 680 -63 803 -68 143 -178 241 -327 294 -69 24 -90 27 -272 31
l-198 4 0 -191z"/>
<path d="M5165 6844 c-37 -19 -107 -85 -146 -138 -31 -42 -39 -107 -18 -149
16 -31 828 -845 861 -863 69 -36 129 -12 231 94 74 76 77 82 77 126 0 26 -6
59 -14 74 -19 35 -837 838 -873 857 -36 19 -80 19 -118 -1z"/>
<path d="M4588 6033 l-347 -348 372 -374 c205 -206 379 -377 386 -379 7 -2
168 150 357 339 l344 344 -382 383 -383 382 -347 -347z"/>
<path d="M3975 5601 c-28 -12 -140 -123 -165 -163 -23 -39 -26 -98 -6 -136 21
-39 805 -816 843 -836 18 -9 52 -16 76 -16 52 0 93 27 180 118 53 57 57 64 57
109 0 36 -6 57 -23 79 -42 56 -818 819 -850 837 -33 18 -79 21 -112 8z"/>
<path d="M5468 5153 l-146 -148 541 -548 c298 -301 556 -557 572 -567 36 -24
113 -27 153 -6 15 8 59 47 98 88 81 83 97 127 71 189 -9 21 -167 186 -413 430
-439 436 -712 703 -722 707 -4 1 -73 -64 -154 -145z"/>
<path d="M3943 4010 c-17 -10 -37 -28 -42 -39 -6 -11 -11 -82 -11 -165 l0
-146 820 0 820 0 0 140 c0 160 -8 187 -64 214 -30 14 -109 16 -763 16 -703 0
-729 -1 -760 -20z"/>
</g>
</svg>
